PathFileType	4	(X/Y/Z)	RBDS012\RBDS012runT25.trc
DataRate	CameraRate	NumFrames	NumMarkers	Units	OrigDataRate	OrigDataStartFrame	OrigNumFrames
150.000000	150.000000	5	33	mm	150.000000	3375	4500
Frame#	Time	L.ASIS			L.Heel.Bottom			L.Heel.Lateral			L.Heel.Top			L.Iliac.Crest			L.MT1			L.MT5			L.PSIS			L.Shank.Bottom.Lateral			L.Shank.Bottom.Medial			L.Shank.Top.Lateral			L.Shank.Top.Medial			L.Thigh.Bottom.Lateral			L.Thigh.Bottom.Medial			L.Thigh.Top.Lateral			L.Thigh.Top.Medial			R.ASIS			R.ASY			R.Heel.Bottom			R.Heel.Lateral			R.Heel.Top			R.Iliac.Crest			R.MT1			R.MT5			R.PSIS			R.Shank.Bottom.Lateral			R.Shank.Bottom.Medial			R.Shank.Top.Lateral			R.Shank.Top.Medial			R.Thigh.Bottom.Lateral			R.Thigh.Bottom.Medial			R.Thigh.Top.Lateral			R.Thigh.Top.Medial			
		X1	Y1	Z1	X2	Y2	Z2	X3	Y3	Z3	X4	Y4	Z4	X5	Y5	Z5	X6	Y6	Z6	X7	Y7	Z7	X8	Y8	Z8	X9	Y9	Z9	X10	Y10	Z10	X11	Y11	Z11	X12	Y12	Z12	X13	Y13	Z13	X14	Y14	Z14	X15	Y15	Z15	X16	Y16	Z16	X17	Y17	Z17	X18	Y18	Z18	X19	Y19	Z19	X20	Y20	Z20	X21	Y21	Z21	X22	Y22	Z22	X23	Y23	Z23	X24	Y24	Z24	X25	Y25	Z25	X26	Y26	Z26	X27	Y27	Z27	X28	Y28	Z28	X29	Y29	Z29	X30	Y30	Z30	X31	Y31	Z31	X32	Y32	Z32	X33	Y33	Z33	

3376	22.5	2096.683484976476	967.8821147470154	839.1847074291958	1733.43417432406	50.270317610982	930.1858755109563	1761.79018071061	59.00585597715581	881.3667714527228	1748.395126804492	98.95307024534993	927.304180952013	2049.803942388941	1036.87814001554	806.6621951828463	1956.904038997439	40.82187532371291	962.84079766242	1925.181157319009	43.39781367591749	846.8178313890678	1938.954622742768	1034.757436704737	938.3554922660998	1865.157566234034	172.0144743772338	867.3454355057734	1824.427853675546	198.0369446526325	894.5175431787451	1896.790252011757	243.8194279619882	848.0726800228175	1858.282661599618	269.5538700265199	876.1988571827349	2060.65163361007	590.9213081799911	808.931937162846	1994.125739635229	582.0381639777057	837.7375505378346	2034.891162221589	697.2228386352137	792.0415446731967	1974.864874399821	690.0391468600712	823.6328735354538	2111.302926500446	972.0980037547035	1111.767629905349	1837.749723433409	283.0105079103448	1029.353565960693	1704.233908122287	432.7395884592509	1046.145667311245	1729.287139430782	416.6333202105376	1081.008213691318	1754.700203454753	443.2310226187731	1044.889688069806	2070.521154539239	1039.886022417005	1144.096427927899	1809.13744094569	243.3879756461552	975.8737408268032	1796.545502351308	252.196680073807	1094.700802955748	1943.330135257733	1026.278984471425	1041.660585341112	1872.845442425225	413.719089961856	1093.866506092011	1866.518636799725	457.743185477289	1068.28176220099	1951.099867074603	438.7268951457714	1114.83955491952	1939.929753603048	484.1867470620924	1089.144628603816	2165.218472339834	588.0964820209495	1154.207935370069	2115.926464724879	566.438736658085	1104.137913276701	2109.0866314463	681.9642551291327	1165.394637024257	2060.558852385596	660.8673251665779	1120.737466175443	
3377	22.50666666666667	2097.301201860891	971.5911480832143	839.0197552374324	1717.480591332852	55.16140778423172	930.0914961456633	1745.944413261942	62.75646965436832	881.2061858110989	1733.298447894724	103.4803706517767	926.5965919902155	2052.092764413269	1040.971715710933	807.482056265928	1939.841054696257	41.12674706966696	962.8536221209852	1908.207214490719	43.58130500665655	847.0765493112212	1940.012727659671	1039.320265933066	938.352882612805	1849.677598149711	176.1009830242464	866.8620313258639	1809.176026062395	202.0591842275577	894.4194165087616	1881.482100896097	247.9008768631754	847.819217823633	1843.053574499957	273.5620237827158	876.1477789004269	2049.578563188644	593.702030769668	809.4598767752032	1983.050627643104	587.0220886437208	838.738687686038	2027.142346529865	700.7820664692604	792.676875814102	1967.247402891493	695.6089841046376	824.8705124659901	2111.762526858837	977.2902573408379	1111.696524372648	1857.118828891759	272.9145342570611	1028.522650972251	1715.577555575988	415.0918807596913	1044.119574542568	1741.302592237282	400.4028750015092	1079.087943804544	1765.365096783681	428.4034797040983	1043.106366490529	2070.596821393733	1044.977942385964	1144.465112654153	1831.369939711007	231.7122824481915	975.141283379621	1817.380728810478	240.0219509476433	1093.875395361058	1943.831768816618	1031.329375810562	1041.872374086391	1884.902122243711	405.338209874719	1092.780242879919	1876.354390537598	448.9490819878206	1067.108160597782	1961.599799473564	434.5538729128734	1114.114111807847	1948.195428134644	479.2880675792339	1088.255177516498	2171.322905064191	596.1743472713539	1154.559158369087	2122.671383433022	573.7204857869461	1104.227693164501	2113.398064204844	688.8652233498854	1165.956532561059	2065.247691466622	666.8452144748244	1121.28356523316	
3378	22.51333333333334	2098.158203138137	975.687323064656	838.8429876332247	1701.936871580722	60.85087326509111	929.9992753651499	1730.510970336523	67.15035417111429	881.0620274087398	1718.783972236286	108.6992246623965	925.8555930865328	2054.572101197303	1045.535270126517	808.3810077759612	1922.929921586669	41.46117384475197	962.8515712951637	1891.378460258104	43.77312408236747	847.3462103784518	1941.33948493731	1044.098941148495	938.3442587073822	1834.528167539088	180.7430098464915	866.2671309880578	1794.301301399796	206.5293328284838	894.3466986661028	1866.342759762421	252.6058537350321	847.4923171335627	1828.063940591055	278.0888141927234	876.1517853916871	2038.653934130534	597.0826897315637	809.9263483187909	1972.167722099647	592.6271557029137	839.6439059584427	2019.635100155825	704.8534629388625	793.2910051866303	1959.900386373809	701.7017569101544	826.0475681471596	2112.438289347165	982.8197074282735	1111.563930778985	1877.140798832766	262.6807497396317	1027.858379692059	1727.740043132419	396.6077712584475	1041.753279829288	1754.012099303426	383.4519931085985	1076.89701915162	1776.63206029327	412.7737386487278	1041.069773839105	2070.864467838374	1050.512187419571	1144.92079630518	1854.399524336254	219.8744824700743	974.6921628007045	1838.863087451014	227.8245051635238	1093.252889670473	1944.576962069883	1036.665546452049	1042.131295768138	1897.190365636364	396.4711358934447	1091.60115839895	1886.383242186731	439.519328830064	1065.793803800289	1972.025450890251	429.966440707121	1113.326545334621	1956.373720687726	473.8123820826973	1087.259784261043	2176.904139611288	604.3046392134228	1154.864515990271	2128.78013125644	581.1620538360244	1104.344250891311	2117.427268151408	695.8991739051518	1166.554030325809	2069.56655496349	673.083232641185	1121.89508716502	
3379	22.52	2099.260686551375	980.1289136715799	838.6913942426212	1686.880898726748	67.32535022890907	929.8710611187984	1715.566703730152	72.18685435315199	880.9034268498945	1704.937509411529	114.5819846891282	925.0705924850167	2057.236159925511	1050.519004235031	809.3358763533969	1906.230008810986	41.81242775299839	962.8312901959414	1874.76298487507	43.97352124517057	847.6105873577937	1942.914602147507	1049.042548034394	938.3220602459029	1819.808846379358	185.8953369767945	865.5516631118594	1779.90324265612	211.4017326670491	894.2873854879726	1851.463090436307	257.893071818074	847.084763707237	1813.411609330625	283.0920840579548	876.2104384311745	2027.996097958066	601.0330129807517	810.3093959696316	1961.584503611797	598.7962540612468	840.4008379382947	2012.46157641031	709.3958045345844	793.8643560386413	1952.901270650807	708.2505164103497	827.1071155475238	2113.308369237502	988.6220277305043	1111.390577476215	1897.83656487352	252.4047793792014	1027.406956964152	1740.817261181678	377.3917883776293	1039.081165208266	1767.500262215636	365.8865847963224	1074.472645679328	1788.595953217297	396.4230288526231	1038.789561034546	2071.343683746183	1056.422824130531	1145.441251254865	1878.215993391616	207.9833113489105	974.5807345454594	1860.993220372154	215.7185727626956	1092.874308599238	1945.55570897941	1042.213707734432	1042.429272946108	1909.761095308436	387.1639991489818	1090.330620486845	1896.686796471852	429.4841297595691	1064.32274941113	1982.420377297402	424.9613914996414	1112.457810259913	1964.53507144888	467.7480090224305	1086.124454993403	2181.989543665952	612.3683715353654	1155.129961122198	2134.244846991768	588.6276480613268	1104.531648496062	2121.203761736504	702.9704317586139	1167.189167176325	2073.531496829569	679.4816655021326	1122.589786263009	
3380	22.52666666666667	2100.603104171107	984.8613349815473	838.6003915340227	1672.382526223732	74.55373466949428	929.6531741741322	1701.180894818443	77.85509766593181	880.6842454871351	1691.827316927971	121.0871793874376	924.2194313165538	2060.075765528818	1055.847715149585	810.3279861593865	1889.799600732372	42.18316756412058	962.7826057219564	1858.433477373349	44.20095331938573	847.8450176507893	1944.709947196848	1054.096195844585	938.289054255013	1805.616332980146	191.4960795551348	864.7091877155951	1766.071714067973	216.6207768554927	894.2199074280386	1836.942609955123	263.7004679311635	846.5909215084305	1799.194100667671	288.5153303709646	876.3136849934987	2017.70340406012	605.5013781677459	810.6004024106203	1951.393987161362	605.455186513017	840.9855180930338	2005.689968916857	714.348411994821	794.3834637245691	1946.309911076992	715.1738076527049	828.0124228505468	2114.351022351944	994.6219916398196	1111.199776056605	1919.203460624029	242.1670316491358	1027.21070021268	1754.883747356207	357.5491445093124	1036.156728927846	1781.830087827787	347.8101806787391	1071.866326600041	1801.33659383892	379.4346270326337	1036.290084270243	2072.040293928901	1062.619313357343	1146.00133142752	1902.80094429264	196.1432568429771	974.8481571054291	1883.756277098087	203.7992757598825	1092.771065724809	1946.750829215872	1047.894812739047	1042.761182494291	1922.655482984308	377.4640730854891	1088.978904400668	1907.337155740698	418.8795787117995	1062.688913256331	1992.824374371679	419.54150575554	1111.495373637814	1972.743533505841	461.0939654729903	1084.823532996003	2186.60846323233	620.2568617131434	1155.354301479565	2139.066036642302	595.9886808586185	1104.826450574894	2124.755939894476	709.9924712042027	1167.848732028106	2077.160427730163	685.9453961195031	1123.374001019994	
